<?xml version="1.0" encoding="UTF-8" standalone="no"?>
<!-- Created with Inkscape (http://www.inkscape.org/) -->

<svg
        width="512"
        height="512"
        viewBox="0 0 512 512"
        version="1.1"
        id="svg1"
        inkscape:version="1.4.1 (93de688d07, 2025-03-30)"
        sodipodi:docname="logo.svg"
        xmlns:inkscape="http://www.inkscape.org/namespaces/inkscape"
        xmlns:sodipodi="http://sodipodi.sourceforge.net/DTD/sodipodi-0.dtd"
        xmlns:xlink="http://www.w3.org/1999/xlink"
        xmlns="http://www.w3.org/2000/svg"
        xmlns:svg="http://www.w3.org/2000/svg">
  <sodipodi:namedview
          id="namedview1"
          pagecolor="#ffffff"
          bordercolor="#000000"
          borderopacity="0.25"
          inkscape:showpageshadow="2"
          inkscape:pageopacity="0.0"
          inkscape:pagecheckerboard="0"
          inkscape:deskcolor="#d1d1d1"
          inkscape:document-units="px"
          inkscape:zoom="0.9824219"
          inkscape:cx="187.29224"
          inkscape:cy="280.93836"
          inkscape:window-width="1920"
          inkscape:window-height="1223"
          inkscape:window-x="0"
          inkscape:window-y="0"
          inkscape:window-maximized="0"
          inkscape:current-layer="svg1"
          showgrid="false" />
  <defs
          id="defs1">
    <linearGradient
            inkscape:collect="always"
            id="baseGradient">
      <stop
              style="stop-color:#3d71d9;"
              offset="0"
              id="begin" />
      <stop
              style="stop-color:#6232a6;"
              offset="1"
              id="end" />
    </linearGradient>
    <linearGradient
            inkscape:collect="always"
            xlink:href="#baseGradient"
            id="skyGradient"
            x1="74.980835"
            y1="437.01917"
            x2="436.97888"
            y2="75.021111"
            gradientUnits="userSpaceOnUse" />
    <linearGradient
            inkscape:collect="always"
            xlink:href="#baseGradient"
            id="aaaaidGradient"
            gradientUnits="userSpaceOnUse"
            x1="74.980835"
            y1="437.01917"
            x2="436.97888"
            y2="75.021111" />
  </defs>
  <path
          d="m 106.49548,463.53025 c 53.16739,38.38777 121.21508,56.53354 190.75847,45.06961 C 436.12236,486.02138 531.4743,353.80412 508.61342,214.98142 485.62152,73.833193 351.75324,-20.946187 211.25816,3.9796736 72.171407,28.654413 -20.702313,161.61411 3.9708568,300.69885 24.255237,415.0433 120.10939,361.65418 152.85046,327.97206 c 13.39556,-13.8113 13.53748,-32.90693 -9.36707,-19.75071 -14.62922,8.46147 -34.47693,14.04058 -42.67583,15.78747 -13.592083,2.70767 -28.854503,1.01537 -8.690203,-14.30262 33.821863,-25.95215 73.964883,-60.94441 117.295753,-127.59894 61.32266,-94.200727 142.71134,-90.161057 184.88496,-54.21892 45.23049,38.32228 54.43381,120.01093 -32.10786,204.30899 -51.75904,50.55045 -115.45073,81.80876 -126.05145,76.64456 -10.54616,-4.88039 24.40022,-19.58695 48.03624,-53.41099 15.89563,-22.77501 13.25362,-49.29489 -10.95009,-28.57249 -38.63642,33.56201 -122.8527,81.36112 -196.621073,93.86228 -6.55042,1.1573 -9.21424,9.25848 -4.32327,13.66935 a 309.49533,309.51508 0 0 0 34.214913,29.14021 z"
          id="sky"
          inkscape:label="Sky"
          style="fill:url(#skyGradient)" />
  <path
          d="m 220.88723,302.99163 c -12.63134,9.86988 -10.73172,13.94231 1.63762,10.86344 38.11237,-9.99 144.27249,-63.14986 152.32948,-105.35894 a 45.579844,45.582752 0 0 0 -14.59649,-42.59123 43.221701,43.224459 0 0 0 -36.1036,-10.02275 c -11.09199,1.96525 -21.70366,8.2431 -29.62962,18.15669 -13.40648,17.05393 -33.51619,50.84522 -57.09762,71.74233 -8.88673,7.75181 -6.29931,10.80884 -1.25552,11.0818 2.65293,0.1092 6.95436,-2.1181 11.59422,-4.10519 8.69019,-3.89771 17.62057,-8.12301 14.45455,2.12902 -5.45866,13.8659 -25.08803,35.5491 -41.33302,48.10483 z"
          id="aaaaid"
          inkscape:label="aaaaid"
          style="fill:url(#aaaaidGradient)" />
</svg>
